<?xml version="1.0" standalone="no"?><!DOCTYPE svg PUBLIC "-//W3C//DTD SVG 1.1//EN" "http://www.w3.org/Graphics/SVG/1.1/DTD/svg11.dtd"><svg t="1592376119712" class="icon" viewBox="0 0 1287 1024" version="1.1" xmlns="http://www.w3.org/2000/svg" p-id="16633" xmlns:xlink="http://www.w3.org/1999/xlink" width="251.3671875" height="200"><defs><style type="text/css"></style></defs><path d="M862.195175 459.237116a47.555804 47.555804 0 0 0-67.253475 0l-140.697646 140.697646h-10.974417a78.790682 78.790682 0 1 0 78.790682 78.790682v-10.13023l140.697646-140.697646a47.555804 47.555804 0 0 0-0.56279-68.660452z" p-id="16634"></path><path d="M643.832428 0A644.395219 644.395219 0 0 0 110.869745 1005.706773a42.490689 42.490689 0 0 0 34.893016 18.290694 41.927899 41.927899 0 0 0 34.893016-65.846498 555.755702 555.755702 0 0 1-95.393004-290.399941h74.569753a47.555804 47.555804 0 1 0 0-95.111609h-70.348823a554.348725 554.348725 0 0 1 110.869745-267.044132l42.772084 42.772084a47.555804 47.555804 0 0 0 67.253475-67.253474L264.511574 234.965069a558.569655 558.569655 0 0 1 335.141793-148.295319 48.962781 48.962781 0 0 0-3.376743 17.165113v74.288357a47.555804 47.555804 0 1 0 95.111608 0V103.834863a48.962781 48.962781 0 0 0-3.095348-17.165113 557.162678 557.162678 0 0 1 333.453421 145.762761l-47.555804 47.555805a47.668362 47.668362 0 0 0 67.53487 67.253474l44.460456-44.741851a560.539422 560.539422 0 0 1 112.558117 270.13948h-72.881381a47.555804 47.555804 0 1 0 0 95.111609h77.946496a556.881283 556.881283 0 0 1-93.704632 285.053431 42.209294 42.209294 0 0 0 70.348823 46.711618A643.832428 643.832428 0 0 0 643.832428 0z" p-id="16635"></path></svg>